<svg xmlns="http://www.w3.org/2000/svg" version="1.1" xmlns:xlink="http://www.w3.org/1999/xlink" width="1000" height="1000"><style>
    #light-icon {
      display: inline;
    }
    #dark-icon {
      display: none;
    }

    @media (prefers-color-scheme: dark) {
      #light-icon {
        display: none;
      }
      #dark-icon {
        display: inline;
      }
    }
  </style><g id="light-icon"><svg xmlns="http://www.w3.org/2000/svg" version="1.1" xmlns:xlink="http://www.w3.org/1999/xlink" width="1000" height="1000"><g><g transform="matrix(5,0,0,5,0,0)"><svg xmlns="http://www.w3.org/2000/svg" version="1.1" xmlns:xlink="http://www.w3.org/1999/xlink" viewBox="0 0 200 200" width="200" height="200"><rect width="200" height="200" fill="url('#gradient')"></rect><defs><linearGradient id="gradient" gradientTransform="rotate(45 0.5 0.5)"><stop offset="0%" stop-color="#af6d3d"></stop><stop offset="100%" stop-color="#cdcdc1"></stop></linearGradient></defs><g><g fill="#9aeabe" transform="matrix(2.6226522481502563,0,0,2.6226522481502563,8.233163930335763,114.34465668319503)" stroke="#aade39" stroke-width="0.2"><path d="M9.17-4.81L12.58-4.81Q12.51-3.33 11.78-2.19Q11.04-1.05 9.72-0.43Q8.40 0.20 6.70 0.20L6.70 0.20Q3.90 0.20 2.29-1.63Q0.67-3.46 0.67-6.79L0.67-6.79L0.67-7.49Q0.67-9.58 1.40-11.15Q2.13-12.71 3.50-13.57Q4.86-14.42 6.66-14.42L6.66-14.42Q9.25-14.42 10.82-13.06Q12.39-11.70 12.61-9.31L12.61-9.31L9.19-9.31Q9.15-10.61 8.54-11.17Q7.92-11.74 6.66-11.74L6.66-11.74Q5.38-11.74 4.79-10.78Q4.19-9.82 4.16-7.72L4.16-7.72L4.16-6.72Q4.16-4.44 4.73-3.47Q5.30-2.49 6.70-2.49L6.70-2.49Q7.88-2.49 8.51-3.05Q9.13-3.60 9.17-4.81L9.17-4.81ZM25.08-14.22L25.08-11.57L20.81-11.57L20.81 0L17.38 0L17.38-11.57L13.19-11.57L13.19-14.22L25.08-14.22ZM25.53-10.57L28.61-10.57L28.72-9.33Q29.84-10.76 31.74-10.76L31.74-10.76Q33.74-10.76 34.44-9.17L34.44-9.17Q35.52-10.76 37.55-10.76L37.55-10.76Q40.76-10.76 40.85-6.88L40.85-6.88L40.85 0L37.55 0L37.55-6.67Q37.55-7.48 37.28-7.85Q37.00-8.22 36.28-8.22L36.28-8.22Q35.30-8.22 34.82-7.35L34.82-7.35L34.83-7.22L34.83 0L31.53 0L31.53-6.65Q31.53-7.48 31.27-7.85Q31.01-8.22 30.26-8.22L30.26-8.22Q29.32-8.22 28.82-7.35L28.82-7.35L28.82 0L25.53 0L25.53-10.57ZM52.54-5.36L52.54-5.21Q52.54-2.74 51.43-1.27Q50.32 0.20 48.44 0.20L48.44 0.20Q46.98 0.20 46.04-0.87L46.04-0.87L46.04 4.06L42.75 4.06L42.75-10.57L45.83-10.57L45.93-9.59Q46.88-10.76 48.42-10.76L48.42-10.76Q50.37-10.76 51.46-9.32Q52.54-7.88 52.54-5.36L52.54-5.36ZM49.25-5.06L49.25-5.41Q49.25-8.22 47.61-8.22L47.61-8.22Q46.44-8.22 46.04-7.38L46.04-7.38L46.04-3.22Q46.47-2.34 47.63-2.34L47.63-2.34Q49.20-2.34 49.25-5.06L49.25-5.06ZM57.46-15L57.46 0L54.16 0L54.16-15L57.46-15ZM69.02-10.42L69.02-10.42Q69.02-9.38 68.51-8.59Q68.00-7.80 67.10-7.32L67.10-7.32Q68.12-6.83 68.71-5.96Q69.31-5.10 69.31-3.92L69.31-3.92Q69.31-2.01 67.99-0.91Q66.68 0.20 64.38 0.20L64.38 0.20Q62.06 0.20 60.72-0.91Q59.38-2.02 59.38-3.92L59.38-3.92Q59.38-5.06 59.97-5.94Q60.56-6.82 61.63-7.32L61.63-7.32Q60.72-7.80 60.21-8.59Q59.69-9.38 59.69-10.42L59.69-10.42Q59.69-12.28 60.95-13.35Q62.21-14.42 64.35-14.42L64.35-14.42Q66.50-14.42 67.76-13.35Q69.02-12.28 69.02-10.42ZM66.01-4.18L66.01-4.18Q66.01-5.06 65.55-5.53Q65.10-6.01 64.36-6.01Q63.61-6.01 63.15-5.53Q62.70-5.06 62.70-4.18L62.70-4.18Q62.70-3.33 63.16-2.84Q63.62-2.34 64.38-2.34L64.38-2.34Q65.11-2.34 65.56-2.83Q66.01-3.32 66.01-4.18ZM64.35-11.88L64.35-11.88Q63.68-11.88 63.33-11.45Q62.99-11.02 62.99-10.24L62.99-10.24Q62.99-9.48 63.34-9.01Q63.69-8.54 64.38-8.54L64.38-8.54Q65.05-8.54 65.39-9.01Q65.72-9.48 65.72-10.24Q65.72-11.01 65.38-11.45Q65.03-11.88 64.35-11.88Z"></path></g></g></svg></g></g></svg></g><g id="dark-icon"><svg xmlns="http://www.w3.org/2000/svg" version="1.1" xmlns:xlink="http://www.w3.org/1999/xlink" width="1000" height="1000"><g><g transform="matrix(5,0,0,5,0,0)"><svg xmlns="http://www.w3.org/2000/svg" version="1.1" xmlns:xlink="http://www.w3.org/1999/xlink" viewBox="0 0 200 200" width="200" height="200"><rect width="200" height="200" fill="url('#gradient')"></rect><defs><linearGradient id="gradient" gradientTransform="rotate(45 0.5 0.5)"><stop offset="0%" stop-color="#af6d3d"></stop><stop offset="100%" stop-color="#cdcdc1"></stop></linearGradient></defs><g><g fill="#9aeabe" transform="matrix(2.6226522481502563,0,0,2.6226522481502563,8.233163930335763,114.34465668319503)" stroke="#aade39" stroke-width="0.2"><path d="M9.17-4.81L12.58-4.81Q12.51-3.33 11.78-2.19Q11.04-1.05 9.72-0.43Q8.40 0.20 6.70 0.20L6.70 0.20Q3.90 0.20 2.29-1.63Q0.67-3.46 0.67-6.79L0.67-6.79L0.67-7.49Q0.67-9.58 1.40-11.15Q2.13-12.71 3.50-13.57Q4.86-14.42 6.66-14.42L6.66-14.42Q9.25-14.42 10.82-13.06Q12.39-11.70 12.61-9.31L12.61-9.31L9.19-9.31Q9.15-10.61 8.54-11.17Q7.92-11.74 6.66-11.74L6.66-11.74Q5.38-11.74 4.79-10.78Q4.19-9.82 4.16-7.72L4.16-7.72L4.16-6.72Q4.16-4.44 4.73-3.47Q5.30-2.49 6.70-2.49L6.70-2.49Q7.88-2.49 8.51-3.05Q9.13-3.60 9.17-4.81L9.17-4.81ZM25.08-14.22L25.08-11.57L20.81-11.57L20.81 0L17.38 0L17.38-11.57L13.19-11.57L13.19-14.22L25.08-14.22ZM25.53-10.57L28.61-10.57L28.72-9.33Q29.84-10.76 31.74-10.76L31.74-10.76Q33.74-10.76 34.44-9.17L34.44-9.17Q35.52-10.76 37.55-10.76L37.55-10.76Q40.76-10.76 40.85-6.88L40.85-6.88L40.85 0L37.55 0L37.55-6.67Q37.55-7.48 37.28-7.85Q37.00-8.22 36.28-8.22L36.28-8.22Q35.30-8.22 34.82-7.35L34.82-7.35L34.83-7.22L34.83 0L31.53 0L31.53-6.65Q31.53-7.48 31.27-7.85Q31.01-8.22 30.26-8.22L30.26-8.22Q29.32-8.22 28.82-7.35L28.82-7.35L28.82 0L25.53 0L25.53-10.57ZM52.54-5.36L52.54-5.21Q52.54-2.74 51.43-1.27Q50.32 0.20 48.44 0.20L48.44 0.20Q46.98 0.20 46.04-0.87L46.04-0.87L46.04 4.06L42.75 4.06L42.75-10.57L45.83-10.57L45.93-9.59Q46.88-10.76 48.42-10.76L48.42-10.76Q50.37-10.76 51.46-9.32Q52.54-7.88 52.54-5.36L52.54-5.36ZM49.25-5.06L49.25-5.41Q49.25-8.22 47.61-8.22L47.61-8.22Q46.44-8.22 46.04-7.38L46.04-7.38L46.04-3.22Q46.47-2.34 47.63-2.34L47.63-2.34Q49.20-2.34 49.25-5.06L49.25-5.06ZM57.46-15L57.46 0L54.16 0L54.16-15L57.46-15ZM69.02-10.42L69.02-10.42Q69.02-9.38 68.51-8.59Q68.00-7.80 67.10-7.32L67.10-7.32Q68.12-6.83 68.71-5.96Q69.31-5.10 69.31-3.92L69.31-3.92Q69.31-2.01 67.99-0.91Q66.68 0.20 64.38 0.20L64.38 0.20Q62.06 0.20 60.72-0.91Q59.38-2.02 59.38-3.92L59.38-3.92Q59.38-5.06 59.97-5.94Q60.56-6.82 61.63-7.32L61.63-7.32Q60.72-7.80 60.21-8.59Q59.69-9.38 59.69-10.42L59.69-10.42Q59.69-12.28 60.95-13.35Q62.21-14.42 64.35-14.42L64.35-14.42Q66.50-14.42 67.76-13.35Q69.02-12.28 69.02-10.42ZM66.01-4.18L66.01-4.18Q66.01-5.06 65.55-5.53Q65.10-6.01 64.36-6.01Q63.61-6.01 63.15-5.53Q62.70-5.06 62.70-4.18L62.70-4.18Q62.70-3.33 63.16-2.84Q63.62-2.34 64.38-2.34L64.38-2.34Q65.11-2.34 65.56-2.83Q66.01-3.32 66.01-4.18ZM64.35-11.88L64.35-11.88Q63.68-11.88 63.33-11.45Q62.99-11.02 62.99-10.24L62.99-10.24Q62.99-9.48 63.34-9.01Q63.69-8.54 64.38-8.54L64.38-8.54Q65.05-8.54 65.39-9.01Q65.72-9.48 65.72-10.24Q65.72-11.01 65.38-11.45Q65.03-11.88 64.35-11.88Z"></path></g></g></svg></g></g></svg></g></svg>